<?xml version="1.0" encoding="UTF-8" standalone="no"?>
<!-- Created with Fritzing (http://www.fritzing.org/) -->

<svg
   xmlns:dc="http://purl.org/dc/elements/1.1/"
   xmlns:cc="http://creativecommons.org/ns#"
   xmlns:rdf="http://www.w3.org/1999/02/22-rdf-syntax-ns#"
   xmlns:svg="http://www.w3.org/2000/svg"
   xmlns="http://www.w3.org/2000/svg"
   xmlns:sodipodi="http://sodipodi.sourceforge.net/DTD/sodipodi-0.dtd"
   xmlns:inkscape="http://www.inkscape.org/namespaces/inkscape"
   width="0.229542in"
   x="0in"
   version="1.2"
   y="0in"
   height="0.677181in"
   viewBox="0 0 16.527 48.757"
   id="svg3091"
   inkscape:version="0.48.2 r9819"
   sodipodi:docname="DS18B20.svg">
  <metadata
     id="metadata3176">
    <rdf:RDF>
      <cc:Work
         rdf:about="">
        <dc:format>image/svg+xml</dc:format>
        <dc:type
           rdf:resource="http://purl.org/dc/dcmitype/StillImage" />
      </cc:Work>
    </rdf:RDF>
  </metadata>
  <defs
     id="defs3174" />
  <sodipodi:namedview
     pagecolor="#ffffff"
     bordercolor="#666666"
     borderopacity="1"
     objecttolerance="10"
     gridtolerance="10"
     guidetolerance="10"
     inkscape:pageopacity="0"
     inkscape:pageshadow="2"
     inkscape:window-width="917"
     inkscape:window-height="633"
     id="namedview3172"
     showgrid="false"
     inkscape:zoom="10.952411"
     inkscape:cx="-3.6778258"
     inkscape:cy="37.360919"
     inkscape:window-x="2190"
     inkscape:window-y="65"
     inkscape:window-maximized="0"
     inkscape:current-layer="breadboard" />
  <path
     fill="none"
     stroke="#8c8c8c"
     stroke-linejoin="round"
     stroke-linecap="round"
     stroke-width="2.16"
     d="M1.08,24.082L1.08,31.259"
     id="path3142" />
  <path
     fill="none"
     stroke="#8c8c8c"
     stroke-linejoin="round"
     stroke-linecap="round"
     stroke-width="2.16"
     d="M8.26001,24.082L8.26001,31.259"
     id="path3144" />
  <path
     fill="none"
     stroke="#8c8c8c"
     stroke-linejoin="round"
     stroke-linecap="round"
     stroke-width="2.16"
     d="M15.447,24.082L15.447,31.259"
     id="path3146" />
  <g
     partID="538340"
     id="g3148">
    <g
       id="breadboard">
      <rect
         width="2.16"
         x="0"
         y="22.082"
         fill="none"
         height="1"
         id="connector0pin" />
      <rect
         width="2.159"
         x="7.181"
         y="22.082"
         fill="none"
         height="1"
         id="connector1pin" />
      <rect
         width="2.16"
         x="14.367"
         y="22.082"
         fill="none"
         height="1"
         id="connector2pin" />
      <g
         fill="none"
         stroke="#8C8C8C"
         id="connector0leg"
         stroke-linecap="round"
         y1="24.082"
         stroke-width="2.16"
         x1="1.08"
         y2="31.259"
         x2="1.08" />
      <g
         fill="none"
         stroke="#8C8C8C"
         id="connector1leg"
         stroke-linecap="round"
         y1="24.082"
         stroke-width="2.16"
         x1="8.26"
         y2="31.259"
         x2="8.26" />
      <g
         fill="none"
         stroke="#8C8C8C"
         id="connector2leg"
         stroke-linecap="round"
         y1="24.082"
         stroke-width="2.16"
         x1="15.447"
         y2="31.259"
         x2="15.447" />
      <rect
         width="2.154"
         x="7.177"
         y="14.731"
         fill="#8C8C8C"
         height="9.351"
         id="rect9506" />
      <path
         fill="#8C8C8C"
         id="path9510"
         d="M3.287,14.731l0,3.315c0,0.424,-0.782,1.06,-1.198,1.426c-1.024,0.891,-2.088,1.818,-2.088,2.992l0,1.619l2.154,0c0,0,0,-1,0,-1.211c0,-0.517,0.904,-1.389,1.35,-1.769c0.997,-0.87,1.945,-1.69,1.945,-2.749L5.45,14.73L3.287,14.731L3.287,14.731z" />
      <path
         fill="#8C8C8C"
         id="path9514"
         d="M13.22,14.731l0,3.315c0,0.424,0.781,1.06,1.199,1.426c1.027,0.891,2.089,1.818,2.089,2.992l0,1.619l-2.153,0c0,0,0,-1,0,-1.211c0,-0.517,-0.904,-1.389,-1.351,-1.769c-0.998,-0.87,-1.944,-1.69,-1.944,-2.749L11.06,14.73L13.22,14.731L13.22,14.731z" />
      <rect
         width="13.278"
         x="1.615"
         y="4.659"
         fill="#1A1A1A"
         height="10.07"
         id="rect9553" />
      <path
         fill="#141414"
         id="path9555"
         d="M13.888,4.659l0,2.453l0,8.228l0,1.843c0.633,-0.714,1.005,-1.554,1.005,-2.453l0,0L14.893,4.659L13.888,4.659z" />
      <path
         fill="#242424"
         id="path9557"
         d="M2.621,4.659L1.616,4.659l0,10.07l0,0c0,0.899,0.373,1.739,1.005,2.453l0,-1.843L2.621,7.112L2.621,4.659z" />
      <path
         fill="#1F1F1F"
         id="path9559"
         d="M1.615,4.659L1.615,4.659c0,0.899,0.373,1.74,1.005,2.453l11.276,0c0.632,-0.713,1.005,-1.554,1.005,-2.453l0,0L1.615,4.659z" />
      <path
         fill="#141414"
         id="path9561"
         d="M8.255,0c-3.668,0,-6.64,2.086,-6.64,4.661l13.278,0C14.893,2.086,11.923,0,8.255,0z" />
      <rect
         width="11.276"
         x="2.621"
         y="7.112"
         height="10.07"
         id="rect9563" />
      <g
         transform="translate(6.3284026,11.342111)"
         id="g3166">
        <text
           id="label0"
           font-size="3"
           style="font-size:3px;fill:#e6e6e6;font-family:OCRAStd">DS</text>
      </g>
      <g
         transform="translate(5.5099838,14.9995)"
         id="g3169">
        <text
           id="label0_1_"
           font-size="3"
           style="font-size:3px;fill:#e6e6e6;font-family:OCRAStd"
           x="-1.599999">18B20</text>
      </g>
    </g>
  </g>
</svg>
