<?xml version="1.0" encoding="UTF-8" standalone="no"?>
<!-- Created with Fritzing (http://www.fritzing.org/) -->

<svg
   xmlns:dc="http://purl.org/dc/elements/1.1/"
   xmlns:cc="http://creativecommons.org/ns#"
   xmlns:rdf="http://www.w3.org/1999/02/22-rdf-syntax-ns#"
   xmlns:svg="http://www.w3.org/2000/svg"
   xmlns="http://www.w3.org/2000/svg"
   xmlns:sodipodi="http://sodipodi.sourceforge.net/DTD/sodipodi-0.dtd"
   xmlns:inkscape="http://www.inkscape.org/namespaces/inkscape"
   width="25.797489"
   x="0in"
   version="1.2"
   y="0in"
   height="48.862442"
   viewBox="0 0 20.638011 39.089967"
   id="svg13685"
   inkscape:version="0.48.2 r9819"
   sodipodi:docname="icon.svg">
  <metadata
     id="metadata13762">
    <rdf:RDF>
      <cc:Work
         rdf:about="">
        <dc:format>image/svg+xml</dc:format>
        <dc:type
           rdf:resource="http://purl.org/dc/dcmitype/StillImage" />
      </cc:Work>
    </rdf:RDF>
  </metadata>
  <defs
     id="defs13760" />
  <sodipodi:namedview
     pagecolor="#ffffff"
     bordercolor="#666666"
     borderopacity="1"
     objecttolerance="10"
     gridtolerance="10"
     guidetolerance="10"
     inkscape:pageopacity="0"
     inkscape:pageshadow="2"
     inkscape:window-width="640"
     inkscape:window-height="480"
     id="namedview13758"
     showgrid="false"
     fit-margin-top="0"
     fit-margin-left="0"
     fit-margin-right="0"
     fit-margin-bottom="0"
     inkscape:zoom="3.8993776"
     inkscape:cx="12.91375"
     inkscape:cy="20.712469"
     inkscape:window-x="1990"
     inkscape:window-y="135"
     inkscape:window-maximized="0"
     inkscape:current-layer="svg13685" />
  <g
     partID="632080"
     id="g13736"
     transform="translate(-5.6689901,-1.6890151)">
    <g
       gorn="0.0"
       id="icon">
      <g
         gorn="0.0.0"
         id="part">
        <g
           gorn="0.0.0.0"
           id="Transistor_legs">
          <rect
             width="2.6919999"
             x="14.641"
             y="31.790001"
             gorn="0.0.0.0.0"
             height="8.9889898"
             id="rect9479"
             style="fill:#8c8c8c" />
          <rect
             width="2.6930001"
             x="5.6689901"
             y="31.790001"
             gorn="0.0.0.0.1"
             height="8.9889898"
             id="rect9481"
             style="fill:#8c8c8c" />
          <rect
             width="2.6930001"
             x="23.614"
             y="31.790001"
             gorn="0.0.0.0.2"
             height="8.9889898"
             id="rect9483"
             style="fill:#8c8c8c" />
        </g>
        <g
           gorn="0.0.0.1"
           id="Transistor_pins">
          <rect
             width="2.6919999"
             x="14.641"
             y="20.104"
             gorn="0.0.0.1.0"
             height="11.688"
             id="rect9506_1_"
             style="fill:#8c8c8c" />
          <path
             gorn="0.0.0.1.1"
             id="path9510_1_"
             d="m 9.77799,20.104 0,4.146 c 0,0.527999 -0.977999,1.323 -1.498,1.78 -1.282,1.113 -2.61,2.273 -2.61,3.74 l 0,2.023 2.693,0 c 0,0 0,-1.25 0,-1.512 0,-0.645999 1.13,-1.736 1.688,-2.211 1.246,-1.088 2.431,-2.113 2.431,-3.437 l 0,-4.53 -2.704,0 0,10e-4 z"
             inkscape:connector-curvature="0"
             style="fill:#8c8c8c" />
          <path
             gorn="0.0.0.1.2"
             id="path9514_1_"
             d="m 22.195,20.104 0,4.146 c 0,0.527999 0.976999,1.323 1.499,1.78 1.285,1.113 2.61,2.273 2.61,3.74 l 0,2.023 -2.693,0 c 0,0 0,-1.25 0,-1.512 0,-0.645999 -1.13,-1.736 -1.686,-2.211 -1.248,-1.088 -2.433,-2.113 -2.433,-3.437 l 0,-4.53 2.703,0 0,10e-4 z"
             inkscape:connector-curvature="0"
             style="fill:#8c8c8c" />
        </g>
        <rect
           width="16.598"
           x="7.6879902"
           y="7.5119901"
           gorn="0.0.0.2"
           height="12.588"
           id="rect9553_1_"
           style="fill:#1a1a1a" />
        <path
           gorn="0.0.0.3"
           id="path9555_1_"
           d="m 23.029,7.51199 0,3.066 0,10.286 0,2.303 c 0.789999,-0.890999 1.256,-1.941 1.256,-3.065 l 0,0 0,-12.59 -1.256,0 z"
           inkscape:connector-curvature="0"
           style="fill:#141414" />
        <path
           gorn="0.0.0.4"
           id="path9557_1_"
           d="m 8.94499,7.51199 -1.255,0 0,12.588 0,0 c 0,1.125 0.466,2.175 1.256,3.065 l 0,-2.303 0,-10.28199 -10e-4,-3.06801 0,0 z"
           inkscape:connector-curvature="0"
           style="fill:#242424" />
        <path
           gorn="0.0.0.5"
           id="path9559_1_"
           d="m 7.68799,7.51199 0,0 c 0,1.125 0.466,2.176 1.256,3.066 l 14.095,0 c 0.789999,-0.890999 1.256,-1.941 1.256,-3.066 l 0,0 -16.607,0 z"
           inkscape:connector-curvature="0"
           style="fill:#1f1f1f" />
        <path
           gorn="0.0.0.6"
           id="path9561_1_"
           d="m 15.987,1.689 c -4.584,0 -8.29999,2.607 -8.29999,5.82699 l 16.598,0 C 24.285,4.297 20.572,1.689 15.987,1.689 z"
           inkscape:connector-curvature="0"
           style="fill:#141414" />
        <rect
           width="14.096"
           x="8.9449902"
           y="10.58"
           gorn="0.0.0.7"
           height="12.587"
           id="rect9563_1_" />
      </g>
      <g
         gorn="0.0.1"
         id="label">
        <text
           x="16"
           y="12"
           gorn="0.0.1.0"
           id="label0"
           font-size="5"
           style="font-size:5px;text-anchor:middle;fill:#e6e6e6;stroke:none;font-family:OCRA">DS18</text>
        <text
           x="16"
           y="17"
           gorn="0.0.1.1"
           id="text13756"
           font-size="5"
           style="font-size:5px;text-anchor:middle;fill:#e6e6e6;stroke:none;font-family:OCRA">B20</text>
      </g>
    </g>
  </g>
</svg>
