<?xml version="1.0" encoding="UTF-8" standalone="no"?>
<!-- Created with Fritzing (http://www.fritzing.org/) -->

<svg
   xmlns:dc="http://purl.org/dc/elements/1.1/"
   xmlns:cc="http://creativecommons.org/ns#"
   xmlns:rdf="http://www.w3.org/1999/02/22-rdf-syntax-ns#"
   xmlns:svg="http://www.w3.org/2000/svg"
   xmlns="http://www.w3.org/2000/svg"
   xmlns:sodipodi="http://sodipodi.sourceforge.net/DTD/sodipodi-0.dtd"
   xmlns:inkscape="http://www.inkscape.org/namespaces/inkscape"
   width="39.568336"
   x="0in"
   version="1.2"
   y="0in"
   height="8.4949093"
   viewBox="0 0 31.654689 6.7959172"
   id="svg3129"
   inkscape:version="0.48.2 r9819"
   sodipodi:docname="fuse.svg">
  <metadata
     id="metadata3209">
    <rdf:RDF>
      <cc:Work
         rdf:about="">
        <dc:format>image/svg+xml</dc:format>
        <dc:type
           rdf:resource="http://purl.org/dc/dcmitype/StillImage" />
        <dc:title></dc:title>
      </cc:Work>
    </rdf:RDF>
  </metadata>
  <defs
     id="defs3207" />
  <sodipodi:namedview
     pagecolor="#ffffff"
     bordercolor="#666666"
     borderopacity="1"
     objecttolerance="10"
     gridtolerance="10"
     guidetolerance="10"
     inkscape:pageopacity="0"
     inkscape:pageshadow="2"
     inkscape:window-width="985"
     inkscape:window-height="480"
     id="namedview3205"
     showgrid="false"
     inkscape:zoom="10.934729"
     inkscape:cx="27.216567"
     inkscape:cy="6.1756855"
     inkscape:window-x="2193"
     inkscape:window-y="187"
     inkscape:window-maximized="0"
     inkscape:current-layer="svg3129"
     fit-margin-top="0"
     fit-margin-left="0"
     fit-margin-right="0"
     fit-margin-bottom="0" />
  <g
     id="g3982">
    <path
       style="fill:none;stroke:#8c8c8c;stroke-width:2.90997005;stroke-linecap:round;stroke-linejoin:round"
       inkscape:connector-curvature="0"
       id="path3180"
       d="m 1.454985,3.4319547 0,0" />
    <path
       style="fill:none;stroke:#8c8c8c;stroke-width:2.90997005;stroke-linecap:round;stroke-linejoin:round"
       inkscape:connector-curvature="0"
       id="path3182"
       d="m 29.799705,3.4319547 0.4,0" />
    <rect
       style="fill:none"
       id="connector0pin"
       height="0.719993"
       y="2.3849745"
       x="1.454985"
       width="0.719993" />
    <rect
       style="fill:none"
       id="connector1pin"
       height="0.719993"
       y="2.3849745"
       x="28.164705"
       width="0.720994" />
    <line
       style="fill:none;stroke:#8c8c8c;stroke-width:2.90997005;stroke-linecap:round"
       x2="1.454985"
       y2="3.4319546"
       x1="1.454985"
       y1="3.4319546"
       id="connector0leg" />
    <line
       style="fill:none;stroke:#8c8c8c;stroke-width:2.90997005;stroke-linecap:round"
       x2="29.799706"
       y2="3.4319546"
       x1="30.199705"
       y1="3.4319546"
       id="connector1leg" />
    <path
       style="fill:none;stroke:#8c8c8c;stroke-width:2.90997005"
       inkscape:connector-curvature="0"
       id="path3191"
       d="m 1.454985,3.4319547 28.3157,0" />
    <path
       sodipodi:nodetypes="cssssssccssccssccssccsscc"
       style="fill:#217821"
       inkscape:connector-curvature="0"
       d="M 10.654905,0.29499166 C 10.294909,0.12899366 9.675914,-5.3411585e-6 9.279925,-5.3411585e-6 l -1.98697,-7e-8 C 6.896959,-5.4111585e-6 5.9416845,1.3587884 5.9521666,1.7546466 L 6.0556325,5.662064 C 6.0661145,6.0579212 6.896958,6.7959206 7.292955,6.7959206 l 1.98699,4.1e-6 c 0.395996,0 1.01499,-0.135999 1.37498,-0.295997 l 0.072,-0.035 c 0.359996,-0.164998 0.875535,-0.3495406 1.271514,-0.3467299 l 7.288396,0.051733 c 0.396986,0.00282 1.01599,0.136999 1.37498,0.294997 l 0.072,0.035 c 0.360996,0.165998 0.978991,0.295997 1.37598,0.295997 l 1.98698,0 c 0.395996,0 1.444254,-0.6333947 1.444254,-1.0303907 l -6.3e-5,-4.5282188 c 0,-0.39599604 -1.047258,-1.2373225411585 -1.444254,-1.2373225411585 l -1.98698,0 c -0.396996,0 -1.01499,0.1369990011585 -1.37598,0.2949970011585 l -0.072,0.0359996 c -0.358996,0.165998 -0.97799,0.294997 -1.37498,0.294997 l -7.18493,0 c -0.395996,0 -1.01499,-0.136999 -1.37498,-0.294997 z"
       id="body" />
    <path
       sodipodi:nodetypes="ccssccssccsccssccsssccssccssccccc"
       style="fill:#000000;fill-opacity:0.4"
       inkscape:connector-curvature="0"
       d="m 24.118805,3.8889547 -0.1552,0.3621307 c 0,0.379997 0.0252,0.3368624 -0.139797,0.3368624 l -1.92298,0 c -0.379997,0 -0.97799,-0.055999 -1.33199,-0.121999 l -0.073,-0.016 C 20.150841,4.3849497 19.54785,4.3279497 19.162848,4.3279497 l -6.94693,0 c -0.381996,0 -0.978991,0.056999 -1.33199,0.121999 l -0.072,0.015 c -0.344996,0.065999 -0.9429897,0.122999 -1.3319887,0.122999 l -0.3169943,-3e-6 -1.00102,0 -0.309997,0 c -0.381996,0 -0.697993,0.292997 -0.697993,0.644993 l 0,0.246997 0,0.158998 0,0.172998 c 0,0.359996 0.315996,0.645993 0.697993,0.645993 l 1.61999,0 c 0.380996,0 0.978991,-0.122999 1.33199,-0.267998 l 0.072,-0.027 c 0.345997,-0.141998 0.95099,-0.265998 1.33199,-0.265998 l 6.94593,0 c 0.379997,0 0.97799,0.123998 1.33399,0.265998 l 0.074,0.028 c 0.345997,0.144999 0.944993,0.266998 1.33399,0.266998 l 2.22498,0 c 0.380996,0 1.009391,-0.294997 1.009391,-0.644993 l 0.310422,-0.540986 -0.05173,-0.97299 0.103466,-1.9474459 c -0.277,0.108 -0.752733,0.6696547 -1.373529,1.5374459 z"
       id="Shadow" />
    <path
       style="fill:#ffffff"
       inkscape:connector-curvature="0"
       d="m 20.727867,0.88598866 c 0.229998,0 0.490995,-0.100999 0.661993,-0.172998 0.201998,-0.0789991 0.576994,-0.143999 0.966989,-0.143999 l 1.46099,0 c 0.224998,0 0.224998,0.244997 0.224998,0.374996 0,0.12999904 -0.016,0.38199604 -0.224998,0.38199604 l -3.06097,0 c -0.106999,0 -0.229998,-0.114999 -0.229998,-0.223998 0.006,-0.087001 0.078,-0.21599704 0.200996,-0.21599704 z"
       id="ReflexRight" />
    <circle
       transform="translate(5.0450898e-6,-0.00700534)"
       style="fill:#ffffff"
       sodipodi:ry="0.43199599"
       sodipodi:rx="0.43199599"
       sodipodi:cy="0.94299102"
       sodipodi:cx="7.4079399"
       r="0.43199599"
       id="ReflexLeft"
       cy="0.94299102"
       cx="7.4079399" />
  </g>
</svg>
